{
  "accessors": [
    {
      "bufferView": 2,
      "componentType": 5126,
      "count": 14073,
      "max": [
        2948.6875,
        998.3846435546875,
        4982.25439453125
      ],
      "min": [
        -11936.8515625,
        -1324.303466796875,
        -7652.04736328125
      ],
      "type": "VEC3"
    },
    {
      "bufferView": 2,
      "byteOffset": 168876,
      "componentType": 5126,
      "count": 14073,
      "max": [
        1.0,
        1.0,
        1.0
      ],
      "min": [
        -1.0,
        -1.0,
        -1.0
      ],
      "type": "VEC3"
    },
    {
      "bufferView": 1,
      "componentType": 5126,
      "count": 14073,
      "max": [
        0.9894809722900391,
        0.9924769401550293
      ],
      "min": [
        0.0287650004029274,
        0.007264971733093262
      ],
      "type": "VEC2"
    },
    {
      "bufferView": 0,
      "componentType": 5125,
      "count": 59658,
      "type": "SCALAR"
    },
    {
      "bufferView": 2,
      "byteOffset": 337752,
      "componentType": 5126,
      "count": 144,
      "max": [
        -3933.29443359375,
        220.14102172851563,
        4790.78369140625
      ],
      "min": [
        -5054.8740234375,
        2.37548828125,
        4215.810546875
      ],
      "type": "VEC3"
    },
    {
      "bufferView": 2,
      "byteOffset": 339480,
      "componentType": 5126,
      "count": 144,
      "max": [
        0.824817955493927,
        0.6827185153961182,
        0.7323753833770752
      ],
      "min": [
        -0.8247045278549194,
        0.42548808455467224,
        0.36600059270858765
      ],
      "type": "VEC3"
    },
    {
      "bufferView": 1,
      "byteOffset": 112584,
      "componentType": 5126,
      "count": 144,
      "max": [
        0.5092549920082092,
        0.9366519451141357
      ],
      "min": [
        0.4252929985523224,
        0.9160410165786743
      ],
      "type": "VEC2"
    },
    {
      "bufferView": 0,
      "byteOffset": 238632,
      "componentType": 5125,
      "count": 528,
      "type": "SCALAR"
    },
    {
      "bufferView": 2,
      "byteOffset": 341208,
      "componentType": 5126,
      "count": 6971,
      "max": [
        -1218.57080078125,
        3609.797119140625,
        5432.427734375
      ],
      "min": [
        -7769.5888671875,
        -1313.419677734375,
        -10422.263671875
      ],
      "type": "VEC3"
    },
    {
      "bufferView": 2,
      "byteOffset": 424860,
      "componentType": 5126,
      "count": 6971,
      "max": [
        1.0,
        1.0,
        1.0
      ],
      "min": [
        -1.0,
        -1.0,
        -1.0
      ],
      "type": "VEC3"
    },
    {
      "bufferView": 1,
      "byteOffset": 113736,
      "componentType": 5126,
      "count": 6971,
      "max": [
        0.9849579930305481,
        0.7153959274291992
      ],
      "min": [
        0.03382299840450287,
        0.04360198974609375
      ],
      "type": "VEC2"
    },
    {
      "bufferView": 0,
      "byteOffset": 240744,
      "componentType": 5125,
      "count": 35682,
      "type": "SCALAR"
    }
  ],
  "asset": {
    "extras": {
      "author": "CourseDesign (https://sketchfab.com/CourseDesign)",
      "license": "CC-BY-4.0 (http://creativecommons.org/licenses/by/4.0/)",
      "source": "https://sketchfab.com/3d-models/a400m-2223510caeb242acac2a0f7e2e733604",
      "title": "A400M"
    },
    "generator": "Sketchfab-16.28.0",
    "version": "2.0"
  },
  "bufferViews": [
    {
      "buffer": 0,
      "byteLength": 383472,
      "name": "floatBufferViews",
      "target": 34963
    },
    {
      "buffer": 0,
      "byteLength": 169504,
      "byteOffset": 383472,
      "byteStride": 8,
      "name": "floatBufferViews",
      "target": 34962
    },
    {
      "buffer": 0,
      "byteLength": 508512,
      "byteOffset": 552976,
      "byteStride": 12,
      "name": "floatBufferViews",
      "target": 34962
    }
  ],
  "buffers": [
    {
      "byteLength": 1061488,
      "uri": "scene.bin"
    }
  ],
  "extensionsUsed": [
    "KHR_materials_specular",
    "KHR_materials_clearcoat",
    "KHR_materials_transmission"
  ],
  "images": [
    {
      "uri": "textures/FUSELAJE_A400MTS.JPG_baseColor.jpeg"
    },
    {
      "uri": "textures/Material.001_baseColor.jpeg"
    }
  ],
  "materials": [
    {
      "doubleSided": true,
      "extensions": {
        "KHR_materials_specular": {
          "specularColorFactor": [
            1.0,
            1.0,
            1.0
          ],
          "specularFactor": 1.0
        }
      },
      "name": "FUSELAJE_A400MTS.JPG",
      "pbrMetallicRoughness": {
        "baseColorTexture": {
          "index": 0
        },
        "metallicFactor": 0.49828723287537635,
        "roughnessFactor": 0.292893
      }
    },
    {
      "alphaMode": "BLEND",
      "doubleSided": true,
      "extensions": {
        "KHR_materials_clearcoat": {
          "clearcoatFactor": 1.0,
          "clearcoatRoughnessFactor": 0.04
        },
        "KHR_materials_transmission": {
          "transmissionFactor": 1.0
        }
      },
      "name": "Glas_001",
      "pbrMetallicRoughness": {
        "baseColorFactor": [
          1.0,
          1.0,
          1.0,
          0.25
        ],
        "metallicFactor": 0.321525,
        "roughnessFactor": 0.952744
      }
    },
    {
      "doubleSided": true,
      "name": "Material.001",
      "pbrMetallicRoughness": {
        "baseColorTexture": {
          "index": 1
        },
        "metallicFactor": 0.504382,
        "roughnessFactor": 0.5
      }
    }
  ],
  "meshes": [
    {
      "name": "Object_0",
      "primitives": [
        {
          "attributes": {
            "NORMAL": 1,
            "POSITION": 0,
            "TEXCOORD_0": 2
          },
          "indices": 3,
          "material": 0,
          "mode": 4
        }
      ]
    },
    {
      "name": "Object_1",
      "primitives": [
        {
          "attributes": {
            "NORMAL": 5,
            "POSITION": 4,
            "TEXCOORD_0": 6
          },
          "indices": 7,
          "material": 1,
          "mode": 4
        }
      ]
    },
    {
      "name": "Object_2",
      "primitives": [
        {
          "attributes": {
            "NORMAL": 9,
            "POSITION": 8,
            "TEXCOORD_0": 10
          },
          "indices": 11,
          "material": 2,
          "mode": 4
        }
      ]
    }
  ],
  "nodes": [
    {
      "children": [
        1
      ],
      "matrix": [
        1.0,
        0.0,
        0.0,
        0.0,
        0.0,
        2.220446049250313e-16,
        -1.0,
        0.0,
        0.0,
        1.0,
        2.220446049250313e-16,
        0.0,
        0.0,
        0.0,
        0.0,
        1.0
      ],
      "name": "Sketchfab_model"
    },
    {
      "children": [
        2
      ],
      "name": "root"
    },
    {
      "children": [
        3
      ],
      "matrix": [
        1.0,
        0.0,
        0.0,
        0.0,
        0.0,
        2.220446049250313e-16,
        1.0,
        0.0,
        0.0,
        -1.0,
        2.220446049250313e-16,
        0.0,
        0.0,
        0.0,
        0.0,
        1.0
      ],
      "name": "GLTF_SceneRootNode"
    },
    {
      "children": [
        4
      ],
      "matrix": [
        0.8968131250847463,
        -0.44221240337724227,
        -0.013206399019200704,
        0.0,
        -0.055388916282893164,
        -0.08261323025103628,
        -0.9950412665515413,
        0.0,
        0.438928566658332,
        0.8930975559740448,
        -0.09858229498469662,
        0.0,
        0.0,
        0.0,
        0.0,
        1.0
      ],
      "name": "Sketchfab_model_7"
    },
    {
      "children": [
        5
      ],
      "name": "root_6"
    },
    {
      "children": [
        6
      ],
      "matrix": [
        1.0,
        0.0,
        0.0,
        0.0,
        0.0,
        -3.371747936409264e-07,
        0.999999999999943,
        0.0,
        0.0,
        -0.999999999999943,
        -3.371747936409264e-07,
        0.0,
        0.0,
        0.0,
        0.0,
        1.0
      ],
      "name": "GLTF_SceneRootNode_5"
    },
    {
      "children": [
        7
      ],
      "matrix": [
        0.009028500568696819,
        0.0042568946277245934,
        0.0006041543781950085,
        0.0,
        -0.004299552812123914,
        0.008938924014549637,
        0.0012686449389276145,
        0.0,
        -2.254731967622044e-10,
        -0.0014051556831037608,
        0.009900783525026827,
        0.0,
        0.0,
        -1.6594598293304443,
        -11.436559677124023,
        1.0
      ],
      "name": "A400M_1_1_4"
    },
    {
      "children": [
        8,
        10,
        12
      ],
      "matrix": [
        -0.9999999999999876,
        0.0,
        1.5631667338311574e-07,
        0.0,
        0.0,
        1.0,
        0.0,
        0.0,
        -1.5631667338311574e-07,
        -0.0,
        -0.9999999999999876,
        0.0,
        -4494.08349609375,
        -64.75485229492188,
        -1211.968505859375,
        1.0
      ],
      "name": "FAN1_Plane_004_0_3"
    },
    {
      "children": [
        9
      ],
      "matrix": [
        1.0,
        0.0,
        0.0,
        0.0,
        0.0,
        1.0,
        0.0,
        0.0,
        0.0,
        0.0,
        1.0,
        0.0,
        -0.00025653839111328125,
        2.6702880859375e-05,
        0.00015544891357421875,
        1.0
      ],
      "name": "Object_5_0"
    },
    {
      "mesh": 0,
      "name": "Object_9"
    },
    {
      "children": [
        11
      ],
      "matrix": [
        1.0,
        0.0,
        0.0,
        0.0,
        0.0,
        1.0,
        0.0,
        0.0,
        0.0,
        0.0,
        1.0,
        0.0,
        -0.00025653839111328125,
        2.6702880859375e-05,
        0.00015544891357421875,
        1.0
      ],
      "name": "Object_6_1"
    },
    {
      "mesh": 1,
      "name": "Object_11"
    },
    {
      "children": [
        13
      ],
      "matrix": [
        1.0,
        0.0,
        0.0,
        0.0,
        0.0,
        1.0,
        0.0,
        0.0,
        0.0,
        0.0,
        1.0,
        0.0,
        -0.00025653839111328125,
        2.6702880859375e-05,
        0.00015544891357421875,
        1.0
      ],
      "name": "Object_7_2"
    },
    {
      "mesh": 2,
      "name": "Object_13"
    }
  ],
  "samplers": [
    {
      "magFilter": 9729,
      "minFilter": 9987,
      "wrapS": 10497,
      "wrapT": 10497
    }
  ],
  "scene": 0,
  "scenes": [
    {
      "name": "Sketchfab_Scene",
      "nodes": [
        0
      ]
    }
  ],
  "textures": [
    {
      "sampler": 0,
      "source": 0
    },
    {
      "sampler": 0,
      "source": 1
    }
  ]
}
